<svg width="200" height="40" viewBox="0 0 200 40" fill="none" xmlns="http://www.w3.org/2000/svg">
<g clip-path="url(#clip0_825_264)">
<path d="M15.1555 0.546875H0.135317C0.135317 0.546875 0 0.68348 0 0.82009V38.9335C0 39.0701 0.135317 39.0701 0.135317 39.0701H15.1555C25.7102 39.0701 34.2352 30.4638 34.2352 19.8085C34.2352 9.15311 25.7102 0.546875 15.1555 0.546875ZM14.6142 30.054H9.4722V9.56294H14.7495C20.2975 9.56294 24.8983 14.2076 24.8983 19.8085C24.763 25.4094 20.2975 30.054 14.6142 30.054Z" fill="#1C1C1B"/>
<path d="M57.9157 0.134766C47.2258 0.134766 38.4302 9.01423 38.4302 19.8062C38.4302 30.5981 47.2258 39.4776 57.9157 39.4776C68.6058 39.4776 77.4014 30.5981 77.4014 19.8062C77.4014 9.01423 68.6058 0.134766 57.9157 0.134766ZM57.9157 30.4615C52.2324 30.4615 47.9024 25.8169 47.9024 19.8062C47.9024 13.7955 52.368 9.15085 57.9157 9.15085C63.599 9.15085 67.9293 13.7955 67.9293 19.8062C67.9293 25.8169 63.4639 30.4615 57.9157 30.4615Z" fill="#1C1C1B"/>
<path d="M180.513 0.134766C169.823 0.134766 161.027 9.01423 161.027 19.8062C161.027 30.5981 169.823 39.4776 180.513 39.4776C191.203 39.4776 199.999 30.5981 199.999 19.8062C200.134 9.01423 191.338 0.134766 180.513 0.134766ZM180.513 30.4615C174.83 30.4615 170.5 25.8169 170.5 19.8062C170.5 13.7955 174.965 9.15085 180.513 9.15085C186.196 9.15085 190.526 13.7955 190.526 19.8062C190.662 25.8169 186.196 30.4615 180.513 30.4615Z" fill="#1C1C1B"/>
<path d="M141.542 9.15268C141.677 9.15268 141.813 9.15268 141.948 9.15268C145.737 9.28926 147.902 11.475 149.255 13.2509C149.525 13.6607 149.796 14.0705 150.067 14.4804C150.067 14.6169 150.202 14.6169 150.338 14.4804L158.05 10.2455C158.186 10.2455 158.186 10.1089 158.05 9.97233C153.72 3.00536 148.037 0 141.542 0C130.987 0 122.056 8.60623 122.056 19.6714C122.056 30.7366 130.987 39.3428 141.542 39.3428C148.037 39.3428 153.72 36.3375 158.05 29.3705C158.05 29.2339 158.05 29.2339 158.05 29.0973L150.338 24.8625C150.202 24.8625 150.202 24.8625 150.067 24.8625C149.796 25.2723 149.525 25.6821 149.255 26.0919C147.902 28.0045 145.737 30.0536 141.948 30.1902C141.813 30.1902 141.677 30.1902 141.542 30.1902C135.994 30.1902 131.528 25.4089 131.528 19.5348C131.528 13.9339 135.994 9.15268 141.542 9.15268Z" fill="#1C1C1B"/>
<path d="M116.779 16.8008C117.049 7.51155 109.065 0.134766 99.0517 0.134766C90.7975 0.134766 82.814 6.55527 82.814 15.4348V38.7946C82.814 38.9312 82.9491 38.9312 82.9491 38.9312H92.0154C92.1505 38.9312 92.1505 38.7946 92.1505 38.7946V16.8008C92.1505 12.7026 95.3985 9.28743 99.458 9.15085C103.653 9.01423 107.171 12.0196 107.171 16.2544C107.171 19.6696 104.329 23.4946 98.5108 23.6312C98.3752 23.6312 98.2401 23.7678 98.3752 23.9044L107.442 38.9312L107.577 39.0678H119.214C119.35 39.0678 119.485 38.9312 119.35 38.7946L111.501 26.9098C114.884 24.3142 116.643 20.6258 116.779 16.8008Z" fill="#1C1C1B"/>
</g>
<defs>
<clipPath id="clip0_825_264">
<rect width="200" height="39.6226" fill="white"/>
</clipPath>
</defs>
</svg>
