<svg width="22" height="16" viewBox="0 0 22 16" fill="none" xmlns="http://www.w3.org/2000/svg">
<g clip-path="url(#clip0_8_660)">
<mask id="mask0_8_660" style="mask-type:luminance" maskUnits="userSpaceOnUse" x="0" y="0" width="23" height="16">
<path d="M0 0H22.0011V16H0V0Z" fill="white"/>
</mask>
<g mask="url(#mask0_8_660)">
<path fill-rule="evenodd" clip-rule="evenodd" d="M0 0H31.35V1.23125H0V0ZM0 2.4625H31.35V3.69375H0V2.4625ZM0 4.92188H31.35V6.15625H0V4.92188ZM0 7.38438H31.35V8.61563H0V7.38438ZM0 9.84688H31.35V11.0781H0V9.84688ZM0 12.3062H31.35V13.5375H0V12.3062ZM0 14.7688H31.35V16H0V14.7688Z" fill="#BD3D44"/>
<path fill-rule="evenodd" clip-rule="evenodd" d="M0 1.23125H31.35V2.4625H0V1.23125ZM0 3.69375H31.35V4.92187H0V3.69375ZM0 6.15312H31.35V7.38437H0V6.15312ZM0 8.61562H31.35V9.84687H0V8.61562ZM0 11.0781H31.35V12.3094H0V11.0781ZM0 13.5375H31.35V14.7687H0V13.5375Z" fill="white"/>
<path fill-rule="evenodd" clip-rule="evenodd" d="M0 0H12.5394V8.61562H0V0Z" fill="#192F5D"/>
<path fill-rule="evenodd" clip-rule="evenodd" d="M1.04413 0.368744L1.16014 0.709369H1.52753L1.23104 0.918744L1.34384 1.26249L1.04413 1.04999L0.747644 1.25937L0.860437 0.918744L0.56073 0.709369H0.934558L1.04413 0.368744ZM3.13563 0.368744L3.24843 0.709369H3.61903L3.31932 0.918744L3.43212 1.26249L3.13563 1.04999L2.83593 1.25937L2.94872 0.918744L2.65223 0.709369H3.01962L3.13563 0.368744ZM5.22391 0.368744L5.33993 0.709369H5.70409L5.40761 0.918744L5.5204 1.26249L5.22069 1.04999L4.92421 1.25937L5.037 0.918744L4.73729 0.709369H5.1079L5.22391 0.368744ZM7.31542 0.368744L7.42821 0.709369H7.79882L7.49911 0.918744L7.61513 1.26249L7.31542 1.04999L7.01571 1.25937L7.13173 0.918744L6.83202 0.709369H7.1994L7.31542 0.368744ZM9.4037 0.368744L9.51972 0.709369H9.8871L9.59061 0.918744L9.70341 1.26249L9.4037 1.04999L9.10722 1.25937L9.22001 0.918744L8.92352 0.709369H9.29091L9.4037 0.368744ZM11.4952 0.368744L11.608 0.709369H11.9786L11.6789 0.918744L11.7949 1.26249L11.4952 1.04999L11.1955 1.25937L11.3115 0.918744L11.0118 0.709369H11.3824L11.4952 0.368744ZM2.09149 1.23124L2.20428 1.57187H2.57489L2.27518 1.78124L2.38475 2.12187L2.09471 1.91249L1.79501 2.12187L1.90136 1.78124L1.61132 1.57187H1.9787L2.09149 1.23124ZM4.17977 1.23124L4.29579 1.57187H4.66317L4.36346 1.78124L4.47948 2.12187L4.17977 1.91249L3.88007 2.12187L3.99608 1.78124L3.69637 1.57187H4.06698L4.17977 1.23124ZM6.27128 1.23124L6.38407 1.57187H6.75468L6.45497 1.78124L6.56776 2.12187L6.27128 1.91249L5.97157 2.12187L6.08436 1.78124L5.78788 1.57187H6.15526L6.27128 1.23124ZM8.35956 1.23124L8.47557 1.57187H8.84296L8.54325 1.78124L8.65927 2.12187L8.35956 1.91249L8.06307 2.12187L8.17587 1.78124L7.87616 1.57187H8.24999L8.35956 1.23124ZM10.4511 1.23124L10.5639 1.57187H10.9345L10.6348 1.78124L10.7475 2.12187L10.4511 1.91249L10.1514 2.12187L10.2641 1.78124L9.96766 1.57187H10.335L10.4511 1.23124ZM1.04413 2.09062L1.16014 2.43749H1.52753L1.23104 2.64687L1.34384 2.98749L1.04413 2.77499L0.747644 2.98749L0.860437 2.64374L0.56073 2.43437H0.934558L1.04413 2.09062ZM3.13563 2.09062L3.24843 2.43437H3.61903L3.31932 2.64374L3.43212 2.98437L3.13563 2.77187L2.83593 2.98437L2.94872 2.64062L2.65223 2.43124H3.01962L3.13563 2.09062ZM5.22391 2.09062L5.33993 2.43437H5.70409L5.40761 2.64374L5.5204 2.98437L5.22069 2.77187L4.92421 2.98437L5.037 2.64062L4.73729 2.43124H5.1079L5.22391 2.09062ZM7.31542 2.09062L7.42821 2.43437H7.79882L7.49911 2.64374L7.61513 2.98437L7.31542 2.77187L7.01571 2.98437L7.13173 2.64062L6.83202 2.43124H7.1994L7.31542 2.09062ZM9.4037 2.09062L9.51972 2.43437H9.8871L9.59061 2.64374L9.70341 2.98437L9.4037 2.77187L9.10722 2.98437L9.22001 2.64062L8.92352 2.43124H9.29091L9.4037 2.09062ZM11.4952 2.09062L11.608 2.43437H11.9786L11.6789 2.64374L11.7949 2.98437L11.4952 2.77187L11.1955 2.98437L11.3115 2.64062L11.0118 2.43124H11.3824L11.4952 2.09062ZM2.09149 2.95312L2.20428 3.29374H2.57489L2.27518 3.50312L2.38798 3.84687L2.09149 3.63437L1.79178 3.84374L1.90458 3.50312L1.60809 3.29374H1.97548L2.09149 2.95312ZM4.17977 2.95312L4.29579 3.29374H4.66317L4.36346 3.50312L4.47948 3.84687L4.17977 3.63437L3.88007 3.84374L3.99608 3.50312L3.69637 3.29374H4.06698L4.17977 2.95312ZM6.27128 2.95312L6.38407 3.29374H6.75468L6.45497 3.50312L6.56776 3.84687L6.27128 3.63437L5.97157 3.84374L6.08436 3.50312L5.78788 3.29374H6.15526L6.27128 2.95312ZM8.35956 2.95312L8.47557 3.29374H8.84296L8.54647 3.50312L8.65927 3.84687L8.35956 3.63437L8.06307 3.84374L8.17587 3.50312L7.87616 3.29374H8.24999L8.35956 2.95312ZM10.4511 2.95312L10.5639 3.29374H10.9345L10.6348 3.50312L10.7475 3.84687L10.4511 3.63437L10.1514 3.84374L10.2641 3.50312L9.96766 3.29374H10.335L10.4511 2.95312ZM1.04413 3.81562L1.16014 4.15624H1.52753L1.23104 4.36562L1.34384 4.70937L1.04413 4.49687L0.747644 4.70624L0.860437 4.36562L0.56073 4.15624H0.934558L1.04413 3.81562ZM3.13563 3.81562L3.24843 4.15624H3.61903L3.31932 4.36562L3.43212 4.70624L3.13563 4.49687L2.83593 4.70624L2.94872 4.36562L2.65223 4.15624H3.01962L3.13563 3.81562ZM5.22391 3.81562L5.33993 4.15624H5.70409L5.40761 4.36562L5.5204 4.70937L5.22069 4.49687L4.92421 4.70624L5.037 4.36562L4.73729 4.15624H5.1079L5.22391 3.81562ZM7.31542 3.81562L7.42821 4.15624H7.79882L7.49911 4.36562L7.61513 4.70937L7.31542 4.49687L7.01571 4.70624L7.13173 4.36562L6.83202 4.15624H7.1994L7.31542 3.81562ZM9.4037 3.81562L9.51972 4.15624H9.8871L9.59061 4.36562L9.70341 4.70937L9.4037 4.49687L9.10722 4.70624L9.22001 4.36562L8.92352 4.15624H9.29091L9.4037 3.81562ZM11.4952 3.81562L11.608 4.15624H11.9786L11.6789 4.36562L11.7949 4.70937L11.4952 4.49687L11.1955 4.70624L11.3115 4.36562L11.0118 4.15624H11.3824L11.4952 3.81562ZM2.09149 4.67812L2.20428 5.01874H2.57489L2.27518 5.22812L2.38798 5.56874L2.09149 5.35624L1.79178 5.56874L1.90458 5.22499L1.60809 5.01562H1.97548L2.09149 4.67812ZM4.17977 4.67812L4.29579 5.01874H4.66317L4.36346 5.22812L4.47948 5.56874L4.17977 5.35624L3.88007 5.56874L3.99608 5.22499L3.69637 5.01562H4.06698L4.17977 4.67812ZM6.27128 4.67812L6.38407 5.01874H6.75468L6.45497 5.22812L6.56776 5.56874L6.27128 5.35624L5.97157 5.56874L6.08436 5.22499L5.78788 5.01562H6.15526L6.27128 4.67812ZM8.35956 4.67812L8.47557 5.01874H8.84296L8.54647 5.22812L8.65927 5.56874L8.35956 5.35624L8.06307 5.56874L8.17587 5.22499L7.87616 5.01562H8.24999L8.35956 4.67812ZM10.4511 4.67812L10.5639 5.01874H10.9345L10.6348 5.22812L10.7475 5.56874L10.4511 5.35624L10.1514 5.56874L10.2641 5.22499L9.96766 5.01562H10.335L10.4511 4.67812ZM1.04413 5.53749L1.16014 5.88124H1.52753L1.23104 6.09062L1.34384 6.42812L1.04413 6.21874L0.747644 6.42812L0.860437 6.08749L0.56073 5.87812H0.934558L1.04413 5.53749ZM3.13563 5.53749L3.24843 5.88124H3.61903L3.31932 6.09062L3.43534 6.42812L3.13563 6.21874L2.83593 6.42812L2.95194 6.08749L2.65223 5.87812H3.01962L3.13563 5.53749ZM5.22391 5.53749L5.33993 5.88124H5.70409L5.40761 6.09062L5.5204 6.42812L5.22069 6.21874L4.92421 6.42812L5.037 6.08749L4.73729 5.87812H5.1079L5.22391 5.53749ZM7.31542 5.53749L7.42821 5.88124H7.79882L7.49911 6.09062L7.61513 6.42812L7.31542 6.21874L7.01571 6.42812L7.13173 6.08749L6.83202 5.87812H7.1994L7.31542 5.53749ZM9.4037 5.53749L9.51972 5.88124H9.8871L9.59061 6.09062L9.70341 6.42812L9.4037 6.21874L9.10722 6.42812L9.22001 6.08749L8.92352 5.87812H9.29091L9.4037 5.53749ZM11.4952 5.53749L11.608 5.88124H11.9786L11.6789 6.09062L11.7949 6.42812L11.4952 6.21874L11.1955 6.42812L11.3115 6.08749L11.0118 5.87812H11.3824L11.4952 5.53749ZM2.09149 6.39999L2.20428 6.74062H2.57489L2.27518 6.94999L2.38798 7.29374L2.09149 7.08124L1.79178 7.29062L1.90458 6.94999L1.60809 6.74062H1.97548L2.09149 6.39999ZM4.17977 6.39999L4.29579 6.74062H4.66317L4.36346 6.94999L4.47948 7.29374L4.17977 7.08124L3.88007 7.29062L3.99608 6.94999L3.69637 6.74062H4.06698L4.17977 6.39999ZM6.27128 6.39999L6.38407 6.74062H6.75468L6.45497 6.94999L6.56776 7.29374L6.27128 7.08124L5.97157 7.29062L6.08436 6.94999L5.78788 6.74062H6.15526L6.27128 6.39999ZM8.35956 6.39999L8.47557 6.74062H8.84296L8.54647 6.94999L8.65927 7.29374L8.35956 7.08124L8.06307 7.29062L8.17587 6.94999L7.87616 6.74062H8.24999L8.35956 6.39999ZM10.4511 6.39999L10.5639 6.74062H10.9345L10.6348 6.94999L10.7475 7.29374L10.4511 7.08124L10.1514 7.29062L10.2641 6.94999L9.96766 6.74062H10.335L10.4511 6.39999ZM1.04413 7.26249L1.16014 7.60312H1.52753L1.23104 7.81249L1.34384 8.15312L1.04413 7.94374L0.747644 8.15312L0.860437 7.80937L0.56073 7.59999H0.934558L1.04413 7.26249ZM3.13563 7.26249L3.24843 7.60312H3.61903L3.31932 7.81249L3.43534 8.15312L3.13563 7.94374L2.83593 8.15312L2.95194 7.80937L2.65223 7.59999H3.01962L3.13563 7.26249ZM5.22391 7.26249L5.33993 7.60312H5.70409L5.41405 7.81249L5.52684 8.15312L5.22714 7.94374L4.93065 8.15312L5.04345 7.80937L4.74374 7.59999H5.11434L5.22391 7.26249ZM7.31542 7.26249L7.42821 7.60312H7.79882L7.49911 7.81249L7.61513 8.15312L7.31542 7.94374L7.01571 8.15312L7.13173 7.80937L6.83202 7.59999H7.1994L7.31542 7.26249ZM9.4037 7.26249L9.51972 7.60312H9.8871L9.59061 7.81249L9.70341 8.15312L9.4037 7.94374L9.10722 8.15312L9.22001 7.80937L8.92352 7.59999H9.29091L9.4037 7.26249ZM11.4952 7.26249L11.608 7.60312H11.9786L11.6789 7.81249L11.7949 8.15312L11.4952 7.94374L11.1955 8.15312L11.3115 7.80937L11.0118 7.59999H11.3824L11.4952 7.26249Z" fill="white"/>
</g>
</g>
<defs>
<clipPath id="clip0_8_660">
<rect width="22" height="16" fill="white"/>
</clipPath>
</defs>
</svg>
