<svg width="22" height="16" viewBox="0 0 22 16" fill="none" xmlns="http://www.w3.org/2000/svg">
<rect width="22" height="16" fill="white"/>
<g clip-path="url(#clip0_8_632)">
<mask id="mask0_8_632" style="mask-type:luminance" maskUnits="userSpaceOnUse" x="1" y="1" width="20" height="15">
<path d="M1.99969 1.00061H20.0006V15.0006H1.99969V1.00061Z" fill="white"/>
</mask>
<g mask="url(#mask0_8_632)">
<path fill-rule="evenodd" clip-rule="evenodd" d="M1.99963 1.0007H20.0031V15.0007H1.99963V1.0007Z" fill="white"/>
<path fill-rule="evenodd" clip-rule="evenodd" d="M3.97205 5.23976L5.83095 2.34107L6.30235 2.66802L4.44344 5.56671L3.97205 5.23976ZM4.67914 5.73018L6.53805 2.83149L7.00945 3.15844L5.15054 6.05713L4.67914 5.73018ZM5.38624 6.2206L7.24515 3.32191L7.71654 3.64886L5.85764 6.54755L5.38624 6.2206Z" fill="black"/>
<path fill-rule="evenodd" clip-rule="evenodd" d="M14.2675 12.3603L16.1264 9.46158L16.5978 9.78853L14.7389 12.6872L14.2675 12.3603ZM14.9746 12.8507L16.8335 9.952L17.3049 10.279L15.446 13.1776L14.9746 12.8507ZM15.6817 13.3411L17.5406 10.4424L18.012 10.7694L16.1531 13.6681L15.6817 13.3411Z" fill="black"/>
<path fill-rule="evenodd" clip-rule="evenodd" d="M17.2337 12.4953L14.8918 10.8741L15.0458 10.6343L17.3877 12.2556L17.2337 12.4953Z" fill="white"/>
<path fill-rule="evenodd" clip-rule="evenodd" d="M8.1842 6.03938C8.67566 5.27327 9.44385 4.74437 10.3198 4.56901C11.1957 4.39366 12.1076 4.58622 12.8549 5.10434C13.6022 5.62246 14.1236 6.42369 14.3045 7.33178C14.4854 8.23986 14.3109 9.18041 13.8194 9.94652L8.1842 6.03938Z" fill="#CD2E3A"/>
<path fill-rule="evenodd" clip-rule="evenodd" d="M8.16679 6.05302C7.67476 6.82021 7.50008 7.76209 7.68118 8.67145C7.86228 9.58082 8.38433 10.3832 9.13248 10.902C9.88063 11.4209 10.7936 11.6137 11.6705 11.4381C12.5475 11.2625 13.3165 10.7329 13.8086 9.96567C14.0546 9.58207 14.1419 9.11114 14.0514 8.65645C13.9608 8.20177 13.6998 7.80059 13.3257 7.54116C12.9517 7.28174 12.4952 7.18532 12.0567 7.27312C11.6182 7.36093 11.2337 7.62575 10.9877 8.00935L8.16679 6.05302Z" fill="#0047A0"/>
<path d="M10.9998 8.01271C11.5126 7.21313 11.2962 6.12657 10.5166 5.58581C9.73686 5.04506 8.6891 5.25487 8.17633 6.05446C7.66355 6.85404 7.87993 7.9406 8.65962 8.48136C9.43932 9.02211 10.4871 8.81229 10.9998 8.01271Z" fill="#CD2E3A"/>
<path fill-rule="evenodd" clip-rule="evenodd" d="M5.83875 13.6692L3.97984 10.7705L4.45124 10.4435L6.31014 13.3422L5.83875 13.6692ZM6.54584 13.1787L4.68694 10.28L5.15834 9.9531L7.01724 12.8518L6.54584 13.1787ZM7.25294 12.6883L5.39404 9.78963L5.86544 9.46268L7.72434 12.3614L7.25294 12.6883Z" fill="black"/>
<path fill-rule="evenodd" clip-rule="evenodd" d="M16.1342 6.54865L14.2753 3.64995L14.7467 3.32301L16.6056 6.2217L16.1342 6.54865ZM16.8413 6.05822L14.9823 3.15953L15.4537 2.83259L17.3127 5.73128L16.8413 6.05822ZM17.5484 5.5678L15.6894 2.66911L16.1608 2.34217L18.0197 5.24086L17.5484 5.5678Z" fill="black"/>
<path fill-rule="evenodd" clip-rule="evenodd" d="M6.27906 11.4443L5.57697 11.93L5.42305 11.6906L6.12514 11.2049L6.27906 11.4443ZM15.8743 4.80661L15.0552 5.37324L14.9013 5.13386L15.7204 4.56723L15.8743 4.80661ZM17.2785 3.83524L16.5764 4.32092L16.4225 4.08154L17.1245 3.59586L17.2785 3.83524Z" fill="white"/>
</g>
</g>
<defs>
<clipPath id="clip0_8_632">
<rect x="2" y="1" width="18" height="14" rx="2" fill="white"/>
</clipPath>
</defs>
</svg>
