<svg width="160" height="40" viewBox="0 0 160 40" fill="none" xmlns="http://www.w3.org/2000/svg">
<g clip-path="url(#clip0_728_165)">
<path d="M5.64608 23.391H3.62873V15.6086H5.64608C7.78981 15.6086 9.53442 17.3532 9.53442 19.498C9.53442 21.6446 7.78981 23.391 5.64608 23.391ZM5.82849 12.1685H0.0663299C0.0297338 12.1685 0 12.1983 0 12.2349V26.7618C0 26.7984 0.0297338 26.8281 0.0663299 26.8281H5.82849C9.87808 26.8281 13.1614 23.5511 13.1591 19.4986C13.1614 15.4513 9.88036 12.1685 5.82849 12.1685Z" fill="white"/>
<path d="M22.2604 23.5617C20.0858 23.5617 18.3824 21.7776 18.3824 19.5001C18.3824 17.2226 20.0858 15.4385 22.2604 15.4385C24.435 15.4385 26.1379 17.2226 26.1379 19.5001C26.1379 21.7776 24.435 23.5617 22.2604 23.5617ZM22.2604 12.0002C18.125 12.0002 14.7605 15.3647 14.7605 19.5001C14.7605 23.6349 18.125 27 22.2604 27C26.3952 27 29.7597 23.6349 29.7597 19.5001C29.7597 15.3647 26.3952 12.0002 22.2604 12.0002Z" fill="white"/>
<path d="M69.4704 23.5611C67.2953 23.5611 65.5924 21.7765 65.5924 19.499C65.5924 17.2214 67.2953 15.4374 69.4704 15.4374C71.6456 15.4374 73.3491 17.2214 73.3491 19.499C73.3491 21.7765 71.6456 23.5611 69.4704 23.5611ZM69.4704 12.0019C65.3351 12.0019 61.97 15.3636 61.97 19.499C61.97 23.6349 65.3351 27 69.4704 27C73.6064 27 76.9709 23.6349 76.9709 19.499C76.9709 15.3636 73.6064 12.0019 69.4704 12.0019Z" fill="white"/>
<path d="M54.4553 15.4442C54.5011 15.4442 54.5468 15.4448 54.5863 15.4465C56.0639 15.4854 56.873 16.3059 57.4122 17.0167C57.5214 17.1671 57.6283 17.3215 57.729 17.473C57.7478 17.5016 57.7844 17.5108 57.8147 17.4942L60.7876 15.904C60.8225 15.8857 60.8339 15.8411 60.8128 15.8079C59.1442 13.1598 56.9496 12.0048 54.4662 12.0048C50.4195 12.0048 46.968 15.2824 46.968 19.5024C46.968 23.7184 50.4155 27 54.4662 27C56.9496 27 59.1442 25.8449 60.8128 23.1969C60.8339 23.1637 60.8225 23.1191 60.7876 23.1008L57.8147 21.51C57.7839 21.4946 57.7478 21.5032 57.729 21.5317C57.6283 21.6839 57.5208 21.8388 57.4105 21.9903C56.8713 22.7005 56.0644 23.5194 54.5937 23.5577C54.5463 23.5594 54.5011 23.56 54.4559 23.56C52.3271 23.56 50.5933 21.7393 50.5905 19.5012C50.5933 17.2643 52.3271 15.4442 54.4553 15.4442Z" fill="white"/>
<path d="M44.9159 18.3618C45.0486 14.7885 41.9659 11.994 38.0845 12.0015C34.9298 12.0066 31.8391 14.4666 31.8391 17.8471V26.7651C31.8391 26.8023 31.8688 26.832 31.9054 26.832H35.4049C35.4421 26.832 35.4713 26.8023 35.4713 26.7651V18.3549C35.4713 16.7916 36.7024 15.4764 38.2652 15.4381C39.8965 15.3975 41.234 16.5079 41.234 18.1273C41.2249 19.4145 40.1464 20.8806 37.9243 20.9549C37.874 20.9566 37.8426 21.011 37.8689 21.0544L41.3672 26.8C41.3792 26.82 41.401 26.832 41.4244 26.832H45.8788C45.9315 26.832 45.9635 26.7726 45.9343 26.7285L42.9329 22.2083C44.1788 21.1888 44.8627 19.817 44.9159 18.3618Z" fill="white"/>
<path d="M86.7051 12.1722H83.2473C83.197 12.1722 83.157 12.2128 83.157 12.2631V26.7294C83.157 26.7797 83.197 26.8203 83.2473 26.8203H93.7018C93.7521 26.8203 93.7927 26.7797 93.7927 26.7294V23.446C93.7927 23.3957 93.7521 23.3551 93.7018 23.3551H86.8858C86.836 23.3551 86.7954 23.3145 86.7954 23.2642V12.2631C86.7954 12.2128 86.7548 12.1722 86.7051 12.1722Z" fill="white"/>
<path d="M97.0385 26.8242H100.384C100.433 26.8242 100.475 26.783 100.475 26.7327V12.2676C100.475 12.2172 100.433 12.1761 100.384 12.1761H97.0385C96.9882 12.1761 96.947 12.2172 96.947 12.2676V26.7327C96.947 26.783 96.9882 26.8242 97.0385 26.8242Z" fill="white"/>
<path d="M110.721 21.5704L107.253 12.2281C107.24 12.1949 107.209 12.1732 107.174 12.1732H103.495C103.436 12.1732 103.395 12.2333 103.417 12.2887L109.232 26.7716C109.244 26.8031 109.275 26.8242 109.309 26.8242H112.21C112.244 26.8242 112.275 26.8031 112.287 26.7716L118.101 12.2887C118.123 12.2333 118.083 12.1732 118.024 12.1732H114.425C114.389 12.1732 114.358 12.1949 114.346 12.2281L110.878 21.5704C110.851 21.643 110.748 21.643 110.721 21.5704Z" fill="white"/>
<path d="M121.134 26.8242H124.477C124.528 26.8242 124.57 26.783 124.57 26.7322V12.2681C124.57 12.2178 124.528 12.1761 124.477 12.1761H121.134C121.083 12.1761 121.042 12.2178 121.042 12.2681V26.7322C121.042 26.783 121.083 26.8242 121.134 26.8242Z" fill="white"/>
<path d="M138.412 20.3524L132.218 12.2127C132.201 12.1898 132.174 12.1761 132.145 12.1761H129.097C129.047 12.1761 129.005 12.2172 129.005 12.2681V26.7322C129.005 26.783 129.047 26.8242 129.097 26.8242H132.401C132.452 26.8242 132.492 26.783 132.492 26.7322V18.418C132.492 18.3299 132.604 18.2922 132.658 18.3625L139.076 26.7876C139.094 26.8105 139.121 26.8242 139.149 26.8242H141.973C142.023 26.8242 142.065 26.783 142.065 26.7322V12.2681C142.065 12.2172 142.023 12.1761 141.973 12.1761H138.669C138.618 12.1761 138.578 12.2172 138.578 12.2681V20.297C138.578 20.385 138.466 20.4228 138.412 20.3524Z" fill="white"/>
<path d="M159.833 18.3582H152.719C152.669 18.3582 152.628 18.3982 152.628 18.448V21.3019C152.628 21.3516 152.669 21.3922 152.719 21.3922H156.072C155.433 22.6908 154.147 23.5611 152.628 23.5611C150.454 23.5611 148.75 21.7771 148.75 19.4995C148.75 17.222 150.454 15.4374 152.628 15.4374C154.013 15.4374 155.203 16.1619 155.888 17.2746C155.953 17.381 156.086 17.4216 156.197 17.3632L158.928 15.9183C159.047 15.8559 159.091 15.7044 159.021 15.59C157.677 13.4011 155.244 11.9493 152.48 12.0031C148.596 12.0791 145.345 15.2126 145.139 19.0918C144.909 23.4119 148.358 27 152.628 27C156.765 27 160.129 23.6355 160.129 19.4995C160.129 19.1787 160.103 18.8648 160.061 18.5555C160.047 18.4417 159.948 18.3582 159.833 18.3582Z" fill="white"/>
</g>
<defs>
<clipPath id="clip0_728_165">
<rect width="160" height="40" fill="white"/>
</clipPath>
</defs>
</svg>
