<svg width="140" height="40" viewBox="0 0 140 40" fill="none" xmlns="http://www.w3.org/2000/svg">
<path d="M132.393 26.5765C132.393 28.3461 130.892 29.7847 129.046 29.7847C127.201 29.7847 125.699 28.3461 125.699 26.5765C125.699 24.8085 127.201 23.3708 129.046 23.3708C130.892 23.3708 132.393 24.8085 132.393 26.5765ZM129.046 19.5125C124.983 19.5125 121.679 22.681 121.679 26.5765C121.679 30.4736 124.983 33.6445 129.046 33.6445C133.109 33.6445 136.415 30.4736 136.415 26.5765C136.415 22.681 133.109 19.5125 129.046 19.5125Z" fill="white"/>
<path d="M133.373 6.86843V19.3514C133.373 19.4898 133.484 19.6016 133.623 19.6016H137.416C137.555 19.6016 137.667 19.4898 137.667 19.3514V6.86843C137.667 6.73 137.555 6.61828 137.416 6.61828H133.623C133.484 6.61828 133.373 6.73 133.373 6.86843Z" fill="white"/>
<path d="M125.412 14.6133H119.999C119.236 14.6133 119.129 14.2418 119.129 13.8095V12.5102H125.412V14.6133ZM125.412 6.84507V9.32305H119.129V6.84507C119.129 6.70583 119.016 6.59331 118.877 6.59331H115.045C114.905 6.59331 114.793 6.70583 114.793 6.84507V14.2183C114.793 16.7392 116.018 18.6367 118.985 18.6367H129.504C129.643 18.6367 129.756 18.5234 129.756 18.3833V6.84507C129.756 6.70583 129.643 6.59331 129.504 6.59331H125.665C125.526 6.59331 125.412 6.70583 125.412 6.84507Z" fill="white"/>
<path d="M106.054 7.48232V22.249H94.0925C93.3219 22.249 93.0061 21.8912 93.0061 21.1003V18.7024H102.846C102.982 18.7024 103.092 18.5931 103.092 18.4571V10.8629C103.092 9.06252 101.852 7.24512 99.0801 7.24512L88.9382 7.23541C88.8022 7.23541 88.6921 7.34631 88.6921 7.48232V10.9584C88.6921 11.0944 88.8022 11.2045 88.9382 11.2045H97.7889C98.4017 11.2045 98.715 11.4741 98.715 12.0788V14.8393H88.9382C88.8022 14.8393 88.6921 14.9494 88.6921 15.0854V22.4579C88.6921 25.0824 90.873 26.1809 93.1235 26.1809H106.053L106.027 32.5195C106.026 32.6555 106.137 32.7656 106.273 32.7656H110.123C110.258 32.7656 110.369 32.6563 110.369 32.5203V7.48232C110.369 7.34631 110.258 7.23541 110.123 7.23541H106.3C106.164 7.23541 106.054 7.34631 106.054 7.48232Z" fill="white"/>
<path d="M2 30.4022V26.569C2 26.467 2.08257 26.3845 2.18376 26.3845H12.8056V21.5799H10.7308C7.87316 21.5799 5.55708 19.263 5.55708 16.4054V7.26008C5.55708 7.15889 5.63885 7.07712 5.74004 7.07712H23.9238C24.0249 7.07712 24.1075 7.15889 24.1075 7.26008L24.1067 11.0916C24.1067 11.1928 24.0241 11.2754 23.9229 11.2754H9.94313V15.7456C9.94313 16.649 10.6749 17.3817 11.5784 17.3817H23.9238C24.0249 17.3817 24.1075 17.4642 24.1075 17.5654L24.1067 21.3961C24.1067 21.4981 24.0241 21.5807 23.9229 21.5807L17.3439 21.5799V26.3845H27.9657C28.0669 26.3845 28.1503 26.467 28.1503 26.569V30.4022C28.1503 30.5034 28.0669 30.5859 27.9657 30.5859H2.18376C2.08257 30.5859 2 30.5034 2 30.4022Z" fill="white"/>
<path d="M38.5857 21.5664C35.8665 21.5664 33.6621 19.3612 33.6621 16.6428V11.9743C33.6621 11.8731 33.7447 11.7913 33.8459 11.7913H48.4895V11.6075C48.4895 10.8296 47.8597 10.199 47.0817 10.199H34.0555C33.9535 10.199 33.8718 10.1164 33.8718 10.0144V6.18448C33.8718 6.08248 33.9535 5.99991 34.0555 5.99991H47.8856C50.6056 5.99991 52.8092 8.20508 52.8092 10.9243V15.5006C52.8092 15.6018 52.7274 15.6835 52.6262 15.6835H38.0514V15.8681C38.0514 16.6963 38.7225 17.3674 39.5506 17.3674H52.8367C52.9379 17.3674 53.0196 17.4499 53.0196 17.5511V21.3818C53.0196 21.4838 52.9379 21.5664 52.8367 21.5664H38.5857Z" fill="white"/>
<path d="M41.0717 33.8154V27.6937H30.4506C30.3494 27.6937 30.2668 27.612 30.2668 27.51V23.6768C30.2668 23.5757 30.3494 23.4931 30.4506 23.4931H56.2334C56.3346 23.4931 56.4172 23.5757 56.4172 23.6768V27.51C56.4172 27.612 56.3346 27.6937 56.2334 27.6937H45.6115V34H41.2562C41.1551 34 41.0717 33.9174 41.0717 33.8154Z" fill="white"/>
<path d="M58.5337 30.4061L58.5345 26.5729C58.5345 26.4709 58.6171 26.3884 58.7183 26.3884H67.5883V20.7589C67.5883 20.6577 67.6701 20.5751 67.7721 20.5751H71.9444C72.0456 20.5751 72.1282 20.6577 72.1282 20.7589V26.3884H84.5002C84.6022 26.3884 84.6848 26.4709 84.6848 26.5729V30.4061C84.6848 30.5073 84.6022 30.5898 84.5002 30.5898H58.7183C58.6171 30.5898 58.5337 30.5073 58.5337 30.4061Z" fill="white"/>
<path d="M76.0625 23.1737L76.3127 18.2963H62.256C62.1548 18.2963 62.073 18.2137 62.073 18.1117V14.6C62.073 14.4988 62.1548 14.417 62.256 14.417H76.5053L76.5725 13.1315C76.6017 12.6061 76.4098 12.1309 76.0164 11.7569C75.6909 11.4476 75.24 11.2768 74.7487 11.2768H62.4365C62.3353 11.2768 62.2527 11.1943 62.2527 11.0923V7.26154C62.2527 7.16035 62.3353 7.07778 62.4365 7.07778H75.5639C77.0404 7.07778 78.3924 7.58698 79.3719 8.51227C80.5214 9.59785 81.1083 11.0623 81.0282 12.6344L80.4963 23.1923C80.4915 23.2903 80.4105 23.3672 80.3126 23.3672L76.2463 23.3664C76.1402 23.3664 76.0569 23.2789 76.0625 23.1737Z" fill="white"/>
</svg>
