<svg width="200" height="85" viewBox="0 0 200 85" fill="none" xmlns="http://www.w3.org/2000/svg">
<g clip-path="url(#clip0_825_246)">
<path d="M199.021 43.4731L189.029 35.4896C186.505 33.4808 183.518 37.2923 185.99 39.301L189.132 41.8249C179.758 53.2593 167.912 62.479 154.571 68.9173L161.782 44.0396C161.782 44.0396 178.522 45.1213 179.81 36.6227C180.222 33.8928 176.359 36.6742 169.405 37.7558C165.233 38.4254 163.636 37.7558 163.636 37.7558C163.636 37.7558 166.675 28.8452 167.345 27.0425C168.633 23.54 171.517 23.8491 171.775 25.8578C171.929 26.9395 171.775 28.6907 170.435 31.163C169.972 32.0386 169.817 32.7597 171.311 32.6567C172.65 32.5537 177.286 32.0901 178.058 26.991C179.758 16.3806 163.791 13.1872 159.773 27.8151L156.838 37.6528C156.838 37.6528 154.262 37.3438 152.923 37.0863C148.081 36.1076 149.421 39.8161 152.408 41.3613C154.777 42.546 155.241 42.649 155.241 42.649C155.241 42.649 154.571 44.9668 152.82 47.5421C149.575 52.4352 143.394 55.5256 138.604 55.7831C133.351 56.0922 132.063 53.2593 131.445 52.1262C131.393 51.9716 131.496 51.8171 131.651 51.8686C132.63 52.2292 135.256 53.0018 139.377 52.2807C147.978 50.787 154.159 36.0561 143.137 34.2534C132.011 32.5022 127.221 44.4002 126.706 45.7909C126.603 45.9969 126.5 46.3059 126.346 46.615C126.294 46.718 126.191 46.8725 126.088 47.027C123.204 52.2807 121.195 56.1952 118.671 56.0407C114.808 55.7316 122.637 44.1427 123.101 42.8035C125.058 37.4468 118.105 33.2233 114.036 39.7646C113.366 40.8977 106.361 52.1777 106.67 50.684C106.619 50.993 116.302 28.2786 117.384 25.7033C117.899 24.1581 116.096 23.128 114.087 22.1493C112.233 21.2222 110.018 20.5011 109.143 21.6858C108.164 23.025 102.962 40.1766 101.468 44.5547C100.953 45.9969 100.18 47.4906 99.0987 48.6237C95.1327 52.8473 88.3339 55.8862 82.9772 53.3108C77.5175 50.684 81.123 38.3224 85.8616 32.3992C93.0725 23.437 97.4505 28.2271 91.1667 35.1805C89.9306 36.5197 95.6478 36.8287 99.0987 35.1805C106.31 31.6781 104.558 24.2096 97.5536 21.2222C92.2999 19.0074 84.4194 20.3466 77.9811 28.8452C75.7148 31.7811 74.3241 34.717 73.4485 37.3953C71.3367 36.1076 68.4523 35.232 67.9888 36.4682C67.6282 37.4983 66.8556 40.1251 65.98 43.061C61.602 57.6374 54.5971 56.4012 56.3998 49.6024C57.0694 47.0785 57.2754 45.7394 60.3143 38.3739C60.5718 37.8073 60.4173 37.3953 60.0568 37.1378C58.9236 36.3137 56.7604 35.335 55.6787 35.3865C55.5242 35.3865 55.3697 35.438 55.2152 35.4896C54.8031 35.7471 54.2365 36.7257 52.8459 41.1038C52.6913 41.5673 52.5883 41.9794 52.4338 42.3914C52.3823 42.4944 52.3308 42.5975 52.2793 42.752C50.322 49.3963 46.9226 54.5985 44.7593 54.1349C38.9391 53.0533 55.1121 35.5926 51.3007 26.5789C49.6525 22.7674 43.0596 19.5225 33.9945 31.4205C33.1188 32.5537 32.9128 32.9142 32.5523 33.3778C33.1188 31.6266 34.9731 25.9093 31.4191 23.7461C23.7962 19.162 15.2461 33.2748 15.2461 33.2748C15.2461 33.2748 16.4822 28.8452 14.4735 25.3943C12.1557 21.3252 4.63571 19.368 1.64833 24.9307C-0.308919 28.5877 2.88449 32.2446 3.34805 30.854C4.01763 28.8967 5.40831 26.7849 7.31405 27.094C9.2198 27.403 13.3403 29.5148 1.08176 54.2894C0.824225 54.753 0.000120282 56.4527 0.0516268 57.4313C0.15464 58.7705 1.49381 60.0067 3.14202 60.0582C4.68722 60.1612 5.71735 59.4916 6.28392 58.4615C16.1732 41.8249 21.9419 30.8025 25.2383 32.4507C28.6893 34.2019 20.1907 50.5295 17.6154 56.6072C16.8428 58.41 18.5425 60.2642 21.2723 60.2642C22.8175 60.2642 24.1052 58.3585 26.8865 53.8259C32.2947 45.0183 38.8361 30.4419 42.9051 32.4507C45.738 33.8928 37.8574 48.1602 36.5698 51.6111C33.2219 60.6248 44.2443 63.1486 50.219 56.7103C50.5281 56.3497 50.8371 56.0407 51.0431 55.7831C51.7642 58.513 53.4639 60.2127 56.9149 60.2127C61.3444 60.2127 65.0014 55.2681 65.0014 55.2681C65.0014 55.2681 63.0442 60.8823 61.499 65.1573C60.0568 68.9173 59.7992 67.9387 55.7817 66.342C49.6009 63.8697 47.2831 63.7667 47.3862 64.4877C47.7982 67.0631 70.9762 84.0087 108.524 84.4723C116.25 84.4723 124.028 83.6997 131.599 82.0515C155.859 76.9008 177.646 63.7151 193.15 44.8637L196.034 47.13C198.455 49.2418 201.597 45.5333 199.021 43.4731ZM134.587 47.2846C135.359 42.2369 142.416 36.9317 142.107 40.4857C141.901 43.1125 138.347 47.4906 135.771 48.5722C135.153 48.7782 134.432 48.2117 134.587 47.2846ZM130.569 77.1584C108.937 81.7424 86.1706 79.4247 65.671 70.6685C66.2376 69.0203 69.637 58.41 72.3668 50.0144C74.2211 58.719 85.192 64.5393 97.193 56.6072C97.9141 56.1437 98.4807 55.7316 98.9957 55.3196C98.9442 55.6286 98.4807 57.2768 98.4807 57.7404C98.3777 59.3371 99.8198 60.5732 102.704 60.3157C104.455 60.1612 105.228 59.1826 106.207 57.8434C106.876 56.9163 109.297 53.3108 112.799 48.3662C112.49 49.3963 112.336 50.89 112.284 52.0232C112.027 57.6889 115.066 60.7793 117.796 61.2428C120.628 61.7064 123.461 60.5732 125.316 58.41C126.037 57.5859 126.809 56.4527 127.479 55.3196C128.767 57.1223 131.857 60.5732 136.905 60.7278C144.167 60.9338 150.193 57.0708 151.635 55.4741C151.532 55.5771 147.927 68.8143 146.948 72.3167C141.695 74.3255 136.183 75.9737 130.569 77.1584Z" fill="#E84E0E"/>
<path d="M83.6982 9.27148C82.7196 9.27148 81.8955 8.44737 81.8955 7.46875C81.8955 6.49012 82.7196 5.66602 83.6982 5.66602C84.6769 5.66602 85.501 6.49012 85.501 7.46875C85.501 8.44737 84.6769 9.27148 83.6982 9.27148ZM83.6982 5.87204C82.8226 5.87204 82.1015 6.59313 82.1015 7.46875C82.1015 8.34436 82.8226 9.06545 83.6982 9.06545C84.5738 9.06545 85.2949 8.34436 85.2949 7.46875C85.2949 6.59313 84.5738 5.87204 83.6982 5.87204Z" fill="black"/>
<path d="M84.2647 8.55122L83.2861 7.5726C83.2861 7.5726 83.2346 7.52109 83.2861 7.52109C83.2861 7.52109 83.2861 7.46958 83.3376 7.46958H83.9042L84.3162 7.10904C84.3162 6.90301 84.1102 6.74849 83.9042 6.74849H83.3376C83.2861 6.74849 83.2346 6.74849 83.1831 6.8C83.1316 6.85151 83.1316 6.90301 83.1316 6.95452V8.55122C83.1316 8.55122 83.1316 8.60273 83.0801 8.60273H82.9255H82.874V6.90301C82.874 6.69699 82.977 6.43945 83.2861 6.43945H83.9042C84.0587 6.43945 84.2647 6.49096 84.3677 6.64548C84.4707 6.74849 84.5737 6.95452 84.5737 7.10904C84.5737 7.26356 84.5222 7.46958 84.3677 7.5726C84.2647 7.67561 84.1102 7.72712 83.9557 7.77862H83.8527L84.5737 8.49972V8.55122C84.5737 8.55122 84.5737 8.60273 84.5222 8.60273L84.2647 8.55122Z" fill="black"/>
<path d="M7.10806 0.154297H1.13329C1.08179 0.154297 1.08179 0.205803 1.08179 0.205803V15.1942C1.08179 15.2457 1.13329 15.2457 1.13329 15.2457H7.05655C11.2286 15.2457 14.628 11.8463 14.628 7.67426C14.628 3.55373 11.2801 0.154297 7.10806 0.154297ZM6.90203 11.7433H4.84177V3.70825H6.90203C9.11681 3.70825 10.9195 5.51098 10.9195 7.72576C10.9195 9.94054 9.11681 11.7433 6.90203 11.7433Z" fill="black"/>
<path d="M24.0536 0C19.7786 0 16.3276 3.45094 16.3276 7.72599C16.3276 12.001 19.7786 15.452 24.0536 15.452C28.3287 15.452 31.7796 12.001 31.7796 7.72599C31.7796 3.45094 28.2772 0 24.0536 0ZM24.0536 11.9495C21.7873 11.9495 20.0361 10.0953 20.0361 7.77749C20.0361 5.40819 21.7873 3.60546 24.0536 3.60546C26.3199 3.60546 28.0711 5.4597 28.0711 7.77749C28.0196 10.0953 26.2684 11.9495 24.0536 11.9495Z" fill="black"/>
<path d="M72.7275 0C68.4524 0 65.0015 3.45094 65.0015 7.72599C65.0015 12.001 68.4524 15.452 72.7275 15.452C77.0025 15.452 80.4534 12.001 80.4534 7.72599C80.4534 3.45094 77.0025 0 72.7275 0ZM72.7275 11.9495C70.4612 11.9495 68.7099 10.0953 68.7099 7.77749C68.7099 5.40819 70.4612 3.60546 72.7275 3.60546C74.9937 3.60546 76.745 5.4597 76.745 7.77749C76.745 10.0953 74.9937 11.9495 72.7275 11.9495Z" fill="black"/>
<path d="M57.224 3.55468C57.2755 3.55468 57.3271 3.55468 57.3786 3.55468C58.9238 3.60619 59.7479 4.43029 60.3144 5.15138C60.4174 5.3059 60.5205 5.46042 60.6235 5.61494C60.6235 5.66645 60.675 5.66645 60.7265 5.61494L63.8169 3.96673C63.8684 3.96673 63.8684 3.91522 63.8169 3.86372C62.1172 1.13387 59.8509 -0.0507812 57.2755 -0.0507812C53.1035 -0.0507812 49.5496 3.34865 49.5496 7.6752C49.5496 12.0018 53.1035 15.4012 57.2755 15.4012C59.8509 15.4012 62.1172 14.2165 63.8169 11.4867C63.8169 11.4352 63.8169 11.3837 63.8169 11.3837L60.7265 9.73547C60.675 9.73547 60.675 9.73547 60.6235 9.73547C60.5205 9.88999 60.4174 10.0445 60.3144 10.199C59.7479 10.9201 58.9238 11.7957 57.4301 11.7957C57.3786 11.7957 57.3271 11.7957 57.2755 11.7957C55.0608 11.7957 53.3095 9.94149 53.3095 7.6237C53.258 5.40892 55.0608 3.55468 57.224 3.55468Z" fill="black"/>
<path d="M47.3861 6.54133C47.5406 2.88437 44.3472 0 40.3812 0C37.0848 0 33.8914 2.52382 33.8914 6.02627V15.2459C33.8914 15.2975 33.9429 15.2975 33.9429 15.2975H37.5483C37.5998 15.2975 37.5998 15.2459 37.5998 15.2459V6.54133C37.5998 4.94463 38.8875 3.55395 40.4842 3.55395C42.1839 3.50245 43.5231 4.63559 43.5231 6.33531C43.5231 7.67448 42.3899 9.16817 40.1237 9.27118C40.0721 9.27118 40.0206 9.32269 40.0721 9.3742L43.6776 15.2975L43.7291 15.349H48.3132C48.3647 15.349 48.4162 15.2975 48.3647 15.2459L45.2743 10.5588C46.665 9.47721 47.3346 8.08653 47.3861 6.54133Z" fill="black"/>
</g>
<defs>
<clipPath id="clip0_825_246">
<rect width="200" height="84.5738" fill="white"/>
</clipPath>
</defs>
</svg>
