<svg width="200" height="83" viewBox="0 0 200 83" fill="none" xmlns="http://www.w3.org/2000/svg">
<path d="M26.7885 44.0162C25.2287 42.3886 23.1263 41.6426 20.5492 41.6426H0.881647C0.406914 41.6426 0 42.0495 0 42.5242V64.5654C0 65.0401 0.406914 65.4471 0.881647 65.4471H5.6968C6.17153 65.4471 6.57844 65.0401 6.57844 64.5654V58.0548H20.617C23.1263 58.0548 25.2287 57.241 26.8563 55.6133C28.484 53.9856 29.23 52.0189 29.23 49.8487C29.1622 47.475 28.3483 45.5761 26.7885 44.0162ZM21.9055 51.8154C21.2952 52.4258 20.617 52.6971 19.6675 52.6971H6.51063V46.9325H19.8032C20.6848 46.9325 21.4308 47.2037 21.9734 47.7463C22.5159 48.2888 22.855 48.967 22.855 49.7809C22.7872 50.5269 22.5159 51.2051 21.9055 51.8154Z" fill="black"/>
<path d="M48.2869 42.4564C47.9478 41.9139 47.4053 41.6426 46.7949 41.6426H41.5728C40.9625 41.6426 40.4199 41.9817 40.0808 42.4564L26.9239 64.4976C26.7205 64.8367 26.9917 65.3114 27.3987 65.3114H32.7564C33.3667 65.3114 33.9093 64.9723 34.2484 64.4976L35.8082 61.8526H52.4239L53.9837 64.4976C54.255 65.0401 54.8654 65.3114 55.4079 65.3114H60.9691C61.376 65.3114 61.6473 64.8367 61.4438 64.4976L48.2869 42.4564ZM38.3853 57.4444L44.0821 47.8141L49.8468 57.5122H38.3853V57.4444Z" fill="black"/>
<path d="M90.6061 60.0215H73.5157C72.3627 60.0215 71.4133 59.6824 70.6673 59.0721C69.9213 58.4617 69.5822 57.58 69.5822 56.4949V50.4591C69.5822 49.3739 69.9213 48.5601 70.6673 47.8819C71.4133 47.2037 72.4306 46.8646 73.5157 46.8646H88.7749C89.3175 46.8646 89.86 46.5255 89.9957 45.983L91.1486 42.4564C91.2842 42.0495 90.9451 41.6426 90.5382 41.6426H71.888C69.1752 41.6426 67.0729 42.4564 65.4452 44.0162C63.8854 45.5761 63.0715 47.4072 63.0715 49.5774V57.5122C63.0715 59.6146 63.8854 61.4457 65.4452 63.0056C67.0729 64.6332 69.1752 65.3792 71.8202 65.3792H88.7071C89.2497 65.3792 89.7244 65.0401 89.9279 64.4976L91.0808 60.9032C91.3521 60.4963 91.013 60.0215 90.6061 60.0215Z" fill="black"/>
<path d="M121.938 60.0215H102.271V55.8846H118.819C119.361 55.8846 119.904 55.5455 120.039 55.0029L121.057 51.8833C121.192 51.4763 120.921 51.0694 120.446 51.0694H102.271V46.9325H120.107C120.65 46.9325 121.125 46.5934 121.328 46.0508L122.549 42.4564C122.684 42.0495 122.413 41.6426 121.938 41.6426H96.6419C96.1672 41.6426 95.7603 42.0495 95.7603 42.5242V64.5654C95.7603 65.0401 96.1672 65.4471 96.6419 65.4471H120.107C120.65 65.4471 121.125 65.108 121.328 64.5654L122.549 60.971C122.684 60.4963 122.345 60.0215 121.938 60.0215Z" fill="black"/>
<path d="M195.793 21.9037C193.488 21.9037 191.589 20.0048 191.589 17.6989C191.589 15.3931 193.488 13.4941 195.793 13.4941C198.099 13.4941 199.998 15.3931 199.998 17.6989C200.066 20.0048 198.167 21.9037 195.793 21.9037ZM195.793 13.9011C193.691 13.9011 191.996 15.5965 191.996 17.6989C191.996 19.8013 193.691 21.4968 195.793 21.4968C197.896 21.4968 199.591 19.8013 199.591 17.6989C199.591 15.5965 197.896 13.9011 195.793 13.9011Z" fill="black"/>
<path d="M197.217 20.2086H197.15L194.844 17.9028C194.776 17.8349 194.776 17.8349 194.776 17.7671C194.776 17.6993 194.844 17.6993 194.912 17.6993H196.2L197.15 16.8176V16.7498C197.15 16.2751 196.743 15.8682 196.2 15.8682H194.912C194.776 15.8682 194.64 15.936 194.505 16.0038C194.437 16.0716 194.369 16.2073 194.369 16.4107V20.2086C194.369 20.2764 194.301 20.3442 194.233 20.3442H193.827H193.691V16.3429C193.691 15.8004 193.962 15.2578 194.708 15.2578H196.2C196.607 15.2578 197.014 15.3935 197.285 15.7325C197.557 16.0038 197.76 16.4107 197.76 16.8176C197.76 17.2246 197.624 17.6315 197.285 17.9028C197.014 18.174 196.675 18.3097 196.268 18.3775H195.997L197.76 20.1408C197.76 20.1408 197.828 20.2086 197.76 20.2764C197.76 20.3442 197.692 20.3442 197.692 20.3442L197.217 20.2086Z" fill="black"/>
<path d="M14.242 0.408203H0.135638C0.067819 0.408203 0 0.476022 0 0.543841V36.081C0 36.1488 0.067819 36.2166 0.135638 36.2166H14.242C24.1436 36.2166 32.1462 28.214 32.1462 18.3124C32.1462 8.41085 24.1436 0.408203 14.242 0.408203ZM13.8351 27.8749H8.88429V8.81776H13.8351C19.0571 8.81776 23.3297 13.0904 23.3297 18.3124C23.3297 23.6023 19.0571 27.8749 13.8351 27.8749Z" fill="black"/>
<path d="M54.4586 0C44.3536 0 36.1475 8.2061 36.1475 18.3111C36.1475 28.4162 44.3536 36.6223 54.4586 36.6223C64.5636 36.6223 72.7697 28.4162 72.7697 18.3111C72.7697 8.2061 64.5636 0 54.4586 0ZM54.4586 28.2805C49.1687 28.2805 44.9639 23.9401 44.9639 18.379C44.9639 12.8178 49.1009 8.47738 54.4586 8.47738C59.7485 8.47738 63.9533 12.8178 63.9533 18.379C63.8854 23.8723 59.7485 28.2805 54.4586 28.2805Z" fill="black"/>
<path d="M169.887 0C159.782 0 151.576 8.2061 151.576 18.3111C151.576 28.4162 159.782 36.6223 169.887 36.6223C179.992 36.6223 188.198 28.4162 188.198 18.3111C188.198 8.2061 179.992 0 169.887 0ZM169.887 28.2805C164.597 28.2805 160.392 23.9401 160.392 18.379C160.392 12.8178 164.529 8.47738 169.887 8.47738C175.177 8.47738 179.381 12.8178 179.381 18.379C179.314 23.8723 175.177 28.2805 169.887 28.2805Z" fill="black"/>
<path d="M133.129 8.40956C133.265 8.40956 133.333 8.40956 133.468 8.40956C137.063 8.47738 139.029 10.5119 140.386 12.2752C140.657 12.6143 140.928 13.0213 141.132 13.3603C141.2 13.4282 141.267 13.4282 141.335 13.4282L148.592 9.56248C148.66 9.49466 148.727 9.42685 148.66 9.35903C144.59 2.8484 139.233 0 133.197 0C123.295 0 114.886 8.00265 114.886 18.3111C114.886 28.6196 123.295 36.6223 133.197 36.6223C139.301 36.6223 144.658 33.7739 148.727 27.3311C148.795 27.2632 148.727 27.1276 148.66 27.1276L141.403 23.2619C141.335 23.1941 141.267 23.2619 141.2 23.3297C140.928 23.6688 140.725 24.0758 140.454 24.4827C139.165 26.246 137.13 28.2127 133.536 28.3484C133.4 28.3484 133.333 28.3484 133.197 28.3484C127.975 28.3484 123.77 23.8723 123.77 18.4468C123.702 12.8856 127.975 8.40956 133.129 8.40956Z" fill="black"/>
<path d="M109.799 15.5311C110.138 6.7824 102.61 -0.0673198 93.1157 0.000499262C85.3844 0.000499262 77.8564 6.03639 77.8564 14.3103V36.148C77.8564 36.2159 77.9243 36.2837 77.9921 36.2837H86.5373C86.6051 36.2837 86.6729 36.2159 86.6729 36.148V15.5311C86.6729 11.7332 89.6569 8.47788 93.5226 8.41006C97.524 8.34224 100.779 11.055 100.779 14.9885C100.779 18.1082 98.1343 21.7026 92.7088 21.906C92.5732 21.906 92.5054 22.0417 92.5732 22.1773L101.118 36.2159C101.118 36.2837 101.186 36.2837 101.254 36.2837H112.173C112.309 36.2837 112.376 36.148 112.309 36.0124L104.984 24.9579C108.036 22.4486 109.664 19.1255 109.799 15.5311Z" fill="black"/>
<path d="M0 81.2131V79.8567H3.79786V77.483H1.0851V71.9219H7.93482V73.2104H2.44148V76.1267H8.07046V77.4152H5.22206V79.7889H9.01993V81.1453H0V81.2131Z" fill="black"/>
<path d="M14.4455 79.2461V82.298H13.0891V79.2461H9.22339V77.9576H18.2433V79.2461H14.4455ZM10.3085 77.0759V73.7528H15.734V72.9389H10.3085V71.6504H17.0904V74.9735H11.6649V75.7874H17.226V77.0759H10.3085Z" fill="black"/>
<path d="M18.3789 81.2122V79.8558H21.3629V77.1431H22.7193V79.8558H27.4667V81.2122H18.3789ZM26.3816 72.0566C26.3137 73.8199 26.0425 76.7362 25.7034 78.6351H24.4148C24.5504 78.0247 24.6861 76.6005 24.7539 75.9901C22.9228 76.1258 19.3962 76.1258 19.1927 76.1258V74.8372C19.3962 74.8372 23.2619 74.8372 24.8217 74.7016C24.8895 74.2947 24.8895 73.8199 24.8895 73.413H19.3284V72.1245H26.3816V72.0566Z" fill="black"/>
<path d="M35.3339 79.4499C34.7914 79.5177 34.4523 79.5177 33.9097 79.5855C32.8925 79.6534 30.5866 79.6534 30.5188 79.6534V78.297H31.2648L31.197 73.414H30.5866V72.0576H35.0627V73.414H34.5201L34.4523 78.2292C34.6558 78.2292 34.9949 78.1613 35.3339 78.1613V79.4499ZM32.4856 78.297C32.7568 78.297 32.9603 78.297 33.1637 78.297L33.2316 73.4818H32.4177L32.4856 78.297ZM35.8087 81.7558V76.3981H34.8592V74.906H35.8087V71.5829H37.0972V81.6879H35.8087V81.7558ZM37.6398 82.2305V71.4473H38.9284V82.2305H37.6398Z" fill="black"/>
<path d="M42.5227 71.7864C44.1503 71.7864 45.0998 73.4818 45.0998 75.9233C45.0998 78.3648 44.0825 80.0603 42.5227 80.0603C40.9628 80.0603 39.9456 78.3648 39.9456 75.9233C39.9456 73.4818 40.9628 71.7864 42.5227 71.7864ZM42.5905 78.7039C43.4043 78.7039 43.8112 77.3475 43.8112 75.9233C43.8112 74.5669 43.4043 73.2106 42.5905 73.2106C41.8445 73.2106 41.3019 74.5669 41.3019 75.9233C41.3019 77.3475 41.7767 78.7039 42.5905 78.7039ZM46.524 82.2305V71.4473H47.8804V82.2305H46.524Z" fill="black"/>
<path d="M48.7617 81.01V79.6536H57.7816V81.01H48.7617ZM53.9838 72.8039C53.9838 74.7706 55.6793 76.3304 57.4425 76.8052C57.1035 77.1443 56.7644 77.619 56.5609 77.8903C55.3402 77.4834 53.916 76.3983 53.2378 75.0419C52.5596 76.3983 51.271 77.4155 49.9146 77.8903C49.7112 77.619 49.3721 77.2121 48.9652 76.7374C50.8641 76.127 52.4239 74.7028 52.4239 72.736V71.7188H53.916V72.8039H53.9838Z" fill="black"/>
</svg>
